<svg width="450" height="213" viewBox="0 0 450 213" fill="none" xmlns="http://www.w3.org/2000/svg" role="img" aria-label="A few numbers I'm proud of">
  <style>
    .bg{fill:#1e1e2e}
    .title{fill:#cba6f7;font:600 17px 'Segoe UI',system-ui,-apple-system,sans-serif}
    .label{fill:#cdd6f4;font:400 13px 'Segoe UI',system-ui,-apple-system,sans-serif}
    .value{fill:#a6e3a1;font:500 14px 'Segoe UI',system-ui,-apple-system,sans-serif}
    .icon{fill:none;stroke:#cba6f7;stroke-width:1.1;stroke-linecap:round;stroke-linejoin:round}
    .ghmark{fill:#cba6f7}
    .ring-bg{stroke:#313244}
    .ring-fg{stroke:#cba6f7}
    .sub{fill:#6c7086;font:600 10px 'Segoe UI',system-ui,sans-serif;letter-spacing:.4px}
    .bar{fill:#cba6f7}
  </style>
  <rect x="0.5" y="0.5" width="449" height="212" rx="12" class="bg" stroke="#313244"/>

 <g transform="translate(0,8)">
  <g transform="translate(25,10)">
    <rect class="bar" x="0"  y="4" width="4" height="16" rx="1.5" style="transform-origin:2px 20px"><animateTransform attributeName="transform" type="scale" values="1 0;1 1;1 .8" keyTimes="0;0.6;1" dur="1.2s" begin="0s" fill="freeze" additive="sum"/></rect>
    <rect class="bar" x="7"  y="0" width="4" height="20" rx="1.5" style="transform-origin:9px 20px"><animateTransform attributeName="transform" type="scale" values="1 0;1 1;1 1" keyTimes="0;0.6;1" dur="1.2s" begin="0s" fill="freeze" additive="sum"/></rect>
    <rect class="bar" x="14" y="8" width="4" height="12" rx="1.5" style="transform-origin:16px 20px"><animateTransform attributeName="transform" type="scale" values="1 0;1 .8;1 .6" keyTimes="0;0.6;1" dur="1.2s" begin="0s" fill="freeze" additive="sum"/></rect>
  </g>
  <text x="52" y="30" class="title">A few numbers I'm proud of</text>

  <g transform="translate(25,52)">
    <g transform="translate(0,0)">
      <line class="icon" x1="0" y1="8" x2="4.5" y2="8"/><line class="icon" x1="11.5" y1="8" x2="16" y2="8"/><circle class="icon" cx="8" cy="8" r="3"/>
      <text x="24" y="12" class="label">Commits:</text><text x="160" y="12" class="value">3.5K</text>
    </g>
    <g transform="translate(0,29)">
      <circle class="icon" cx="4" cy="3.5" r="2"/><circle class="icon" cx="4" cy="13" r="2"/><circle class="icon" cx="13" cy="5" r="2"/><line class="icon" x1="4" y1="5.5" x2="4" y2="11"/><path class="icon" d="M13 7v2a3 3 0 01-3 3H6.5"/>
      <text x="24" y="12" class="label">Pull Requests:</text><text x="160" y="12" class="value">2.2K</text>
    </g>
    <g transform="translate(0,58)">
      <path class="icon" d="M3 2h9a1 1 0 011 1v11H4a1 1 0 01-1-1z"/><path class="icon" d="M3 12a1 1 0 011-1h9"/>
      <text x="24" y="12" class="label">Public Repos:</text><text x="160" y="12" class="value">40</text>
    </g>
    <g transform="translate(0,87)">
      <path class="icon" d="M2 8.5l3.5 3.5L14 4"/>
      <text x="24" y="12" class="label">PR Reviews:</text><text x="160" y="12" class="value">512</text>
    </g>
    <g transform="translate(0,116)">
      <circle class="icon" cx="4" cy="3.5" r="2"/><circle class="icon" cx="4" cy="13" r="2"/><circle class="icon" cx="13" cy="9" r="2"/><line class="icon" x1="4" y1="5.5" x2="4" y2="11"/><path class="icon" d="M4 7a5 5 0 005 5h2"/>
      <text x="24" y="12" class="label">Merged PRs:</text><text x="160" y="12" class="value">1.8K</text>
    </g>
  </g>

  <g transform="translate(340,100)">
    <circle r="46" class="ring-bg" fill="none" stroke-width="6"/>
    <circle r="46" class="ring-fg" fill="none" stroke-width="6" stroke-linecap="round" stroke-dasharray="289" stroke-dashoffset="43" transform="rotate(-90)"/>
    <path class="ghmark" transform="translate(-14,-14) scale(1.16)" d="M12 .5C5.7.5.5 5.7.5 12c0 5.1 3.3 9.4 7.9 10.9.6.1.8-.2.8-.5v-2c-3.2.7-3.9-1.4-3.9-1.4-.5-1.3-1.3-1.7-1.3-1.7-1.1-.7.1-.7.1-.7 1.2.1 1.8 1.2 1.8 1.2 1 1.8 2.8 1.3 3.5 1 .1-.8.4-1.3.7-1.6-2.6-.3-5.3-1.3-5.3-5.7 0-1.3.4-2.3 1.2-3.1-.1-.3-.5-1.5.1-3.1 0 0 1-.3 3.2 1.2a11 11 0 015.8 0C17.3 4.8 18.3 5.1 18.3 5.1c.6 1.6.2 2.8.1 3.1.8.8 1.2 1.8 1.2 3.1 0 4.4-2.7 5.4-5.3 5.7.4.4.8 1.1.8 2.2v3.3c0 .3.2.6.8.5A11.5 11.5 0 0023.5 12C23.5 5.7 18.3.5 12 .5z"/>
  </g>
  <text x="340" y="180" text-anchor="middle" class="sub">ALL-TIME · SINCE 2014</text>
 </g>
</svg>